<svg xmlns="http://www.w3.org/2000/svg" width="256" height="256" viewBox="0 0 100 100"><rect width="100" height="100" rx="20" fill="#7d6ee7"></rect><path fill="#fff" d="M29.79 81.50Q27.99 81.50 26.73 80.33Q25.47 79.16 25.47 77.54L25.47 77.54L25.47 22.46Q25.47 20.75 26.73 19.63Q27.99 18.50 29.79 18.50L29.79 18.50L54.81 18.50Q62.64 18.50 67.28 23.18Q71.91 27.86 71.91 35.78L71.91 35.78Q71.91 40.01 69.66 43.70Q67.41 47.39 63.81 49.19L63.81 49.19L63.81 49.37Q68.94 50.90 71.73 54.64Q74.53 58.37 74.53 63.68L74.53 63.68Q74.53 68.90 72.32 72.95Q70.11 77 66.16 79.25Q62.19 81.50 57.06 81.50L57.06 81.50L29.79 81.50ZM33.84 46.31L54.63 46.31Q58.32 46.31 60.98 43.30Q63.63 40.28 63.63 35.96L63.63 35.96Q63.63 31.19 61.25 28.49Q58.86 25.79 54.63 25.79L54.63 25.79L33.84 25.79L33.84 46.31ZM33.84 74.21L56.43 74.21Q61.02 74.21 63.63 71.47Q66.25 68.72 66.25 63.77L66.25 63.77Q66.25 59 63.68 56.30Q61.11 53.60 56.43 53.60L56.43 53.60L33.84 53.60L33.84 74.21Z"></path></svg>